<svg xmlns="http://www.w3.org/2000/svg" width="208.72" height="35" viewBox="0 0 208.72 35"><rect class="svg__rect" x="0" y="0" width="86.9" height="35" fill="#31C4F3"/><rect class="svg__rect" x="84.9" y="0" width="123.82" height="35" fill="#389AD5"/><path class="svg__text" d="M15.70 22L14.22 22L14.22 13.47L15.70 13.47L15.70 17.47L16.52 16.46L19.02 13.47L20.81 13.47L17.64 17.25L20.99 22L19.23 22L16.67 18.31L15.70 19.34L15.70 22ZM25.55 22L24.01 22L27.23 13.47L28.56 13.47L31.79 22L30.24 22L29.55 20.01L26.24 20.01L25.55 22ZM27.89 15.28L26.66 18.82L29.13 18.82L27.89 15.28ZM35.50 18.13L35.50 18.13L35.50 17.46Q35.50 15.53 36.42 14.44Q37.35 13.35 39.01 13.35L39.01 13.35Q40.43 13.35 41.27 14.05Q42.11 14.76 42.28 16.08L42.28 16.08L40.82 16.08Q40.58 14.54 39.04 14.54L39.04 14.54Q38.04 14.54 37.52 15.26Q37.00 15.98 36.99 17.37L36.99 17.37L36.99 18.02Q36.99 19.40 37.57 20.17Q38.15 20.93 39.19 20.93L39.19 20.93Q40.33 20.93 40.81 20.42L40.81 20.42L40.81 18.75L39.05 18.75L39.05 17.62L42.28 17.62L42.28 20.89Q41.82 21.50 41.00 21.81Q40.18 22.12 39.14 22.12L39.14 22.12Q38.06 22.12 37.24 21.63Q36.41 21.14 35.96 20.24Q35.52 19.33 35.50 18.13ZM46.65 18.13L46.65 18.13L46.65 17.46Q46.65 15.53 47.58 14.44Q48.51 13.35 50.16 13.35L50.16 13.35Q51.59 13.35 52.43 14.05Q53.26 14.76 53.43 16.08L53.43 16.08L51.98 16.08Q51.73 14.54 50.19 14.54L50.19 14.54Q49.20 14.54 48.68 15.26Q48.16 15.98 48.14 17.37L48.14 17.37L48.14 18.02Q48.14 19.40 48.73 20.17Q49.31 20.93 50.35 20.93L50.35 20.93Q51.48 20.93 51.96 20.42L51.96 20.42L51.96 18.75L50.21 18.75L50.21 17.62L53.44 17.62L53.44 20.89Q52.98 21.50 52.16 21.81Q51.34 22.12 50.29 22.12L50.29 22.12Q49.22 22.12 48.39 21.63Q47.57 21.14 47.12 20.24Q46.67 19.33 46.65 18.13ZM63.41 22L58.06 22L58.06 13.47L59.54 13.47L59.54 20.82L63.41 20.82L63.41 22ZM73.12 22L67.54 22L67.54 13.47L73.07 13.47L73.07 14.66L69.02 14.66L69.02 17.02L72.52 17.02L72.52 18.19L69.02 18.19L69.02 20.82L73.12 20.82L73.12 22Z" fill="#FFFFFF"/><path class="svg__text" d="M101.42 22L99.09 22L99.09 13.60L101.04 13.60L104.75 18.07L104.75 13.60L107.08 13.60L107.08 22L105.13 22L101.42 17.52L101.42 22ZM111.81 17.80L111.81 17.80Q111.81 16.55 112.42 15.55Q113.02 14.56 114.08 14.00Q115.15 13.43 116.48 13.43L116.48 13.43Q117.81 13.43 118.87 14.00Q119.94 14.56 120.54 15.55Q121.15 16.55 121.15 17.80L121.15 17.80Q121.15 19.05 120.54 20.04Q119.94 21.04 118.88 21.60Q117.81 22.17 116.48 22.17L116.48 22.17Q115.15 22.17 114.08 21.60Q113.02 21.04 112.42 20.04Q111.81 19.05 111.81 17.80ZM114.21 17.80L114.21 17.80Q114.21 18.51 114.51 19.05Q114.81 19.60 115.33 19.90Q115.85 20.20 116.48 20.20L116.48 20.20Q117.12 20.20 117.63 19.90Q118.15 19.60 118.45 19.05Q118.75 18.51 118.75 17.80L118.75 17.80Q118.75 17.09 118.45 16.54Q118.15 16 117.63 15.70Q117.12 15.40 116.48 15.40L116.48 15.40Q115.84 15.40 115.33 15.70Q114.81 16 114.51 16.54Q114.21 17.09 114.21 17.80ZM127.67 15.48L125.09 15.48L125.09 13.60L132.61 13.60L132.61 15.48L130.04 15.48L130.04 22L127.67 22L127.67 15.48ZM143.72 22L136.98 22L136.98 13.60L143.57 13.60L143.57 15.44L139.34 15.44L139.34 16.85L143.07 16.85L143.07 18.63L139.34 18.63L139.34 20.17L143.72 20.17L143.72 22ZM153.07 22L148.53 22L148.53 13.60L152.83 13.60Q154.44 13.60 155.28 14.19Q156.12 14.79 156.12 15.79L156.12 15.79Q156.12 16.39 155.82 16.87Q155.53 17.34 154.99 17.62L154.99 17.62Q155.71 17.87 156.11 18.41Q156.52 18.94 156.52 19.70L156.52 19.70Q156.52 20.80 155.63 21.40Q154.75 22 153.07 22L153.07 22ZM150.88 18.58L150.88 20.28L152.88 20.28Q154.13 20.28 154.13 19.43L154.13 19.43Q154.13 18.58 152.88 18.58L152.88 18.58L150.88 18.58ZM150.88 15.31L150.88 16.94L152.51 16.94Q153.71 16.94 153.71 16.12L153.71 16.12Q153.71 15.31 152.51 15.31L152.51 15.31L150.88 15.31ZM160.81 17.80L160.81 17.80Q160.81 16.55 161.41 15.55Q162.02 14.56 163.08 14.00Q164.14 13.43 165.47 13.43L165.47 13.43Q166.80 13.43 167.87 14.00Q168.93 14.56 169.54 15.55Q170.14 16.55 170.14 17.80L170.14 17.80Q170.14 19.05 169.54 20.04Q168.93 21.04 167.87 21.60Q166.81 22.17 165.47 22.17L165.47 22.17Q164.14 22.17 163.08 21.60Q162.02 21.04 161.41 20.04Q160.81 19.05 160.81 17.80ZM163.21 17.80L163.21 17.80Q163.21 18.51 163.51 19.05Q163.81 19.60 164.33 19.90Q164.84 20.20 165.47 20.20L165.47 20.20Q166.11 20.20 166.63 19.90Q167.14 19.60 167.44 19.05Q167.74 18.51 167.74 17.80L167.74 17.80Q167.74 17.09 167.44 16.54Q167.14 16 166.63 15.70Q166.11 15.40 165.47 15.40L165.47 15.40Q164.84 15.40 164.32 15.70Q163.81 16 163.51 16.54Q163.21 17.09 163.21 17.80ZM174.45 17.80L174.45 17.80Q174.45 16.55 175.05 15.55Q175.65 14.56 176.72 14.00Q177.78 13.43 179.11 13.43L179.11 13.43Q180.44 13.43 181.50 14.00Q182.57 14.56 183.17 15.55Q183.78 16.55 183.78 17.80L183.78 17.80Q183.78 19.05 183.17 20.04Q182.57 21.04 181.51 21.60Q180.45 22.17 179.11 22.17L179.11 22.17Q177.78 22.17 176.72 21.60Q175.65 21.04 175.05 20.04Q174.45 19.05 174.45 17.80ZM176.84 17.80L176.84 17.80Q176.84 18.51 177.14 19.05Q177.45 19.60 177.96 19.90Q178.48 20.20 179.11 20.20L179.11 20.20Q179.75 20.20 180.26 19.90Q180.78 19.60 181.08 19.05Q181.38 18.51 181.38 17.80L181.38 17.80Q181.38 17.09 181.08 16.54Q180.78 16 180.26 15.70Q179.75 15.40 179.11 15.40L179.11 15.40Q178.47 15.40 177.96 15.70Q177.45 16 177.14 16.54Q176.84 17.09 176.84 17.80ZM190.86 22L188.51 22L188.51 13.60L190.86 13.60L190.86 17.09L194.12 13.60L196.73 13.60L193.30 17.32L196.91 22L194.15 22L191.75 18.95L190.86 19.90L190.86 22Z" fill="#FFFFFF" x="97.9"/></svg>